<svg width="12" height="21" viewBox="0 0 12 21" fill="none" xmlns="http://www.w3.org/2000/svg">
<path d="M8 9.45H4C3.46957 9.45 2.96086 9.22875 2.58579 8.83492C2.21071 8.4411 2 7.90695 2 7.35C2 6.79305 2.21071 6.2589 2.58579 5.86508C2.96086 5.47125 3.46957 5.25 4 5.25H9C9.26522 5.25 9.51957 5.36062 9.70711 5.55754C9.89464 5.75445 10 6.02152 10 6.3C10 6.57848 10.1054 6.84555 10.2929 7.04246C10.4804 7.23937 10.7348 7.35 11 7.35C11.2652 7.35 11.5196 7.23937 11.7071 7.04246C11.8946 6.84555 12 6.57848 12 6.3C12 5.46457 11.6839 4.66335 11.1213 4.07261C10.5587 3.48187 9.79565 3.15 9 3.15H7V1.05C7 0.771523 6.89464 0.504451 6.70711 0.307538C6.51957 0.110625 6.26522 0 6 0C5.73478 0 5.48043 0.110625 5.29289 0.307538C5.10536 0.504451 5 0.771523 5 1.05V3.15H4C2.93913 3.15 1.92172 3.5925 1.17157 4.38015C0.421427 5.1678 0 6.23609 0 7.35C0 8.46391 0.421427 9.5322 1.17157 10.3198C1.92172 11.1075 2.93913 11.55 4 11.55H8C8.53043 11.55 9.03914 11.7712 9.41421 12.1651C9.78929 12.5589 10 13.093 10 13.65C10 14.207 9.78929 14.7411 9.41421 15.1349C9.03914 15.5287 8.53043 15.75 8 15.75H3C2.73478 15.75 2.48043 15.6394 2.29289 15.4425C2.10536 15.2455 2 14.9785 2 14.7C2 14.4215 1.89464 14.1545 1.70711 13.9575C1.51957 13.7606 1.26522 13.65 1 13.65C0.734784 13.65 0.48043 13.7606 0.292893 13.9575C0.105357 14.1545 0 14.4215 0 14.7C0 15.5354 0.316071 16.3366 0.87868 16.9274C1.44129 17.5181 2.20435 17.85 3 17.85H5V19.95C5 20.2285 5.10536 20.4955 5.29289 20.6925C5.48043 20.8894 5.73478 21 6 21C6.26522 21 6.51957 20.8894 6.70711 20.6925C6.89464 20.4955 7 20.2285 7 19.95V17.85H8C9.06087 17.85 10.0783 17.4075 10.8284 16.6198C11.5786 15.8322 12 14.7639 12 13.65C12 12.5361 11.5786 11.4678 10.8284 10.6802C10.0783 9.8925 9.06087 9.45 8 9.45Z" fill="black"/>
</svg>
