<svg width="21" height="18" viewBox="0 0 21 18" fill="none" xmlns="http://www.w3.org/2000/svg">
<path d="M13.11 4.83098L9.45 0.480982C9.30336 0.322579 9.12425 0.197693 8.92492 0.114853C8.72558 0.0320134 8.51072 -0.00682791 8.295 0.000982207H1.5C1.10218 0.000982207 0.720644 0.159017 0.43934 0.440322C0.158035 0.721627 0 1.10316 0 1.50098V16.501C0 16.8988 0.158035 17.2803 0.43934 17.5616C0.720644 17.8429 1.10218 18.001 1.5 18.001H19.5C19.8978 18.001 20.2794 17.8429 20.5607 17.5616C20.842 17.2803 21 16.8988 21 16.501V6.33098C21 5.93316 20.842 5.55163 20.5607 5.27032C20.2794 4.98902 19.8978 4.83098 19.5 4.83098H13.11ZM2.25 2.20598H7.95L10.17 4.83098H2.25V2.20598ZM18.75 15.706H2.25V7.08098H18.75V15.706Z" fill="black"/>
</svg>
