<svg width="21" height="21" viewBox="0 0 21 21" fill="none" xmlns="http://www.w3.org/2000/svg">
<path d="M10.4701 8.25C10.914 8.25 11.3479 8.38196 11.717 8.62919C12.0861 8.87643 12.3738 9.22783 12.5437 9.63896C12.7136 10.0501 12.758 10.5025 12.6714 10.939C12.5848 11.3754 12.3711 11.7763 12.0572 12.091C11.7433 12.4057 11.3433 12.62 10.908 12.7068C10.4726 12.7936 10.0213 12.749 9.61115 12.5787C9.20102 12.4084 8.85048 12.12 8.60386 11.75C8.35723 11.38 8.22559 10.945 8.22559 10.5C8.22559 9.90326 8.46206 9.33097 8.88299 8.90901C9.30391 8.48705 9.8748 8.25 10.4701 8.25ZM10.4701 6C9.58224 6 8.71435 6.26392 7.97614 6.75839C7.23793 7.25285 6.66257 7.95566 6.32281 8.77792C5.98305 9.60019 5.89416 10.505 6.06737 11.3779C6.24057 12.2508 6.66811 13.0526 7.2959 13.682C7.92369 14.3113 8.72355 14.7399 9.59432 14.9135C10.4651 15.0872 11.3677 14.9981 12.1879 14.6575C13.0082 14.3169 13.7093 13.7401 14.2025 13.0001C14.6958 12.26 14.959 11.39 14.959 10.5C14.959 9.30653 14.4861 8.16193 13.6443 7.31802C12.8024 6.47411 11.6606 6 10.4701 6ZM11.4876 2.25C11.8044 3.24208 12.4271 4.10776 13.2661 4.72237C14.1051 5.33697 15.117 5.66878 16.1561 5.67C16.5343 5.67133 16.9112 5.62599 17.2783 5.535L18.2659 7.2C17.4307 8.09485 16.966 9.27452 16.966 10.5C16.966 11.7255 17.4307 12.9051 18.2659 13.8L17.2783 15.465C16.9112 15.374 16.5343 15.3287 16.1561 15.33C15.117 15.3312 14.1051 15.663 13.2661 16.2776C12.4271 16.8922 11.8044 17.7579 11.4876 18.75H9.45258C9.13577 17.7579 8.51304 16.8922 7.67406 16.2776C6.83509 15.663 5.82317 15.3312 4.78405 15.33C4.40587 15.3287 4.02895 15.374 3.66181 15.465L2.67424 13.8C3.50947 12.9051 3.97416 11.7255 3.97416 10.5C3.97416 9.27452 3.50947 8.09485 2.67424 7.2L3.66181 5.535C4.02895 5.62599 4.40587 5.67133 4.78405 5.67C5.82317 5.66878 6.83509 5.33697 7.67406 4.72237C8.51304 4.10776 9.13577 3.24208 9.45258 2.25H11.4876ZM12.6846 0H8.19567C7.99732 0.0286936 7.81579 0.127699 7.68402 0.279059C7.55225 0.430419 7.47896 0.62411 7.47743 0.825C7.47564 1.17419 7.40396 1.51947 7.26665 1.8404C7.12933 2.16132 6.92918 2.45135 6.67803 2.69333C6.42688 2.93531 6.12985 3.1243 5.80452 3.24912C5.47919 3.37394 5.13219 3.43205 4.78405 3.42C4.31604 3.39786 3.86201 3.25304 3.46729 3C3.31121 2.95243 3.14455 2.95243 2.98847 3C2.84237 3.00141 2.6989 3.03916 2.57094 3.10984C2.44297 3.18053 2.33451 3.28194 2.25527 3.405L0.115533 7.14C0.0596958 7.2331 0.0231084 7.3365 0.0079476 7.44406C-0.00721324 7.55161 -0.00063789 7.66113 0.0272826 7.76609C0.0552031 7.87105 0.103898 7.96931 0.170471 8.05502C0.237043 8.14073 0.320133 8.21214 0.414797 8.265C0.821596 8.48249 1.16178 8.80673 1.39898 9.20304C1.63619 9.59935 1.76149 10.0528 1.76149 10.515C1.76149 10.9772 1.63619 11.4307 1.39898 11.827C1.16178 12.2233 0.821596 12.5475 0.414797 12.765C0.320133 12.8179 0.237043 12.8893 0.170471 12.975C0.103898 13.0607 0.0552031 13.1589 0.0272826 13.2639C-0.00063789 13.3689 -0.00721324 13.4784 0.0079476 13.5859C0.0231084 13.6935 0.0596958 13.7969 0.115533 13.89L2.31512 17.67C2.39634 17.7712 2.49876 17.8532 2.61513 17.9102C2.7315 17.9672 2.85896 17.9979 2.98847 18C3.14455 18.0476 3.31121 18.0476 3.46729 18C3.86784 17.768 4.32149 17.644 4.78405 17.64C5.12723 17.628 5.46939 17.6842 5.79083 17.8053C6.11227 17.9264 6.40663 18.11 6.65697 18.3456C6.90732 18.5813 7.10869 18.8642 7.2495 19.1782C7.39031 19.4921 7.46777 19.8309 7.47743 20.175C7.48135 20.3952 7.57137 20.605 7.72809 20.7593C7.88481 20.9136 8.09571 21 8.31537 21H12.8043C13.024 21 13.2349 20.9136 13.3916 20.7593C13.5483 20.605 13.6384 20.3952 13.6423 20.175C13.6442 19.831 13.714 19.4907 13.8476 19.1738C13.9812 18.8569 14.176 18.5696 14.4207 18.3285C14.6654 18.0873 14.9553 17.897 15.2737 17.7686C15.5921 17.6401 15.9326 17.576 16.2758 17.58C16.7384 17.584 17.192 17.708 17.5926 17.94C17.7063 17.9866 17.829 18.0071 17.9517 18C18.0978 17.9986 18.2412 17.9608 18.3692 17.8902C18.4972 17.8195 18.6056 17.7181 18.6849 17.595L20.8845 13.815C20.9403 13.7219 20.9769 13.6185 20.9921 13.5109C21.0072 13.4034 21.0006 13.2939 20.9727 13.1889C20.9448 13.0839 20.8961 12.9857 20.8295 12.9C20.763 12.8143 20.6799 12.7429 20.5852 12.69C20.1784 12.4725 19.8382 12.1483 19.601 11.752C19.3638 11.3557 19.2385 10.9022 19.2385 10.44C19.2385 9.97783 19.3638 9.52435 19.601 9.12804C19.8382 8.73173 20.1784 8.40749 20.5852 8.19C20.6799 8.13714 20.763 8.06573 20.8295 7.98002C20.8961 7.89431 20.9448 7.79605 20.9727 7.69109C21.0006 7.58613 21.0072 7.47662 20.9921 7.36906C20.9769 7.2615 20.9403 7.1581 20.8845 7.065L18.625 3.36C18.5468 3.25332 18.4457 3.1656 18.3292 3.1033C18.2126 3.04099 18.0836 3.00569 17.9517 3C17.8052 2.99699 17.6606 3.03324 17.5327 3.105C17.1322 3.33697 16.6785 3.461 16.2159 3.465C15.8591 3.48562 15.5019 3.43238 15.1665 3.30858C14.8311 3.18478 14.5247 2.99308 14.2664 2.74542C14.0081 2.49776 13.8035 2.19945 13.6652 1.86905C13.5269 1.53866 13.458 1.18326 13.4627 0.825C13.4595 0.614832 13.3778 0.413508 13.2338 0.260772C13.0897 0.108036 12.8938 0.0149891 12.6846 0Z" fill="black"/>
</svg>
