<svg width="21" height="19" viewBox="0 0 21 19" fill="none" xmlns="http://www.w3.org/2000/svg">
<path d="M20.535 0.259889C20.3942 0.140461 20.2255 0.0585824 20.0445 0.0218666C19.8636 -0.0148492 19.6763 -0.00520973 19.5 0.0498887L14.685 1.87989L7.63503 0.0498887C7.59022 0.0439065 7.54483 0.0439065 7.50003 0.0498887C7.39621 0.0275901 7.28884 0.0275901 7.18503 0.0498887L0.795025 1.96989C0.564141 2.04073 0.362182 2.18399 0.219012 2.37848C0.0758426 2.57298 -0.000937542 2.80838 2.54286e-05 3.04989V16.9249C-0.00115807 17.0997 0.0389856 17.2724 0.117186 17.4288C0.195386 17.5852 0.30943 17.7209 0.450025 17.8249C0.637378 17.974 0.870623 18.0535 1.11003 18.0499C1.20941 18.0656 1.31064 18.0656 1.41003 18.0499L7.41003 16.2649L14.475 18.0499H14.73C14.8496 18.0643 14.9705 18.0643 15.09 18.0499L20.25 16.1749C20.4787 16.0919 20.6749 15.938 20.8098 15.7356C20.9448 15.5332 21.0114 15.2929 21 15.0499V1.17489C20.9983 0.996851 20.9554 0.821625 20.8747 0.6629C20.7941 0.504174 20.6778 0.366246 20.535 0.259889ZM8.53503 2.61489L13.695 3.93489V15.4849L8.53503 14.1649V2.61489ZM6.27003 14.2099L2.20503 15.4249V3.88989L6.27003 2.67489V14.2099ZM18.795 14.2099L15.795 15.2899V3.84489L18.795 2.76489V14.2099Z" fill="black"/>
</svg>
