<svg width="19" height="21" viewBox="0 0 19 21" fill="none" xmlns="http://www.w3.org/2000/svg">
<path d="M16.7775 7.35C16.7402 6.97871 16.5658 6.63467 16.2885 6.38504C16.0111 6.13541 15.6507 5.99813 15.2775 6H13.5075C13.5075 2.685 11.4825 0 9.00752 0C6.53252 0 4.50752 2.685 4.50752 6H2.75252C2.37937 5.99813 2.01892 6.13541 1.74156 6.38504C1.46419 6.63467 1.28983 6.97871 1.25252 7.35L0.00752089 19.35C-0.0135086 19.5592 0.00968265 19.7705 0.07559 19.9702C0.141497 20.1699 0.248648 20.3534 0.39009 20.509C0.531532 20.6646 0.704105 20.7887 0.896611 20.8733C1.08912 20.9579 1.29726 21.0011 1.50752 21H16.5075C16.7178 21.0011 16.9259 20.9579 17.1184 20.8733C17.3109 20.7887 17.4835 20.6646 17.625 20.509C17.7664 20.3534 17.8735 20.1699 17.9395 19.9702C18.0054 19.7705 18.0285 19.5592 18.0075 19.35L16.7775 7.35ZM9.00752 1.905C10.5075 1.905 11.7075 4.02 11.7075 6H6.30752C6.30752 4.02 7.50752 1.905 9.00752 1.905ZM2.33252 18.75L3.41252 8.25H14.6025L15.6825 18.75H2.33252Z" fill="#121212"/>
</svg>
