<svg width="21" height="18" viewBox="0 0 21 18" fill="none" xmlns="http://www.w3.org/2000/svg">
<path d="M18.75 2.25V15.75H2.25V2.25H18.75ZM19.5 0H1.5C1.10218 0 0.720644 0.158035 0.43934 0.43934C0.158035 0.720644 0 1.10218 0 1.5V16.5C0 16.8978 0.158035 17.2794 0.43934 17.5607C0.720644 17.842 1.10218 18 1.5 18H19.5C19.8978 18 20.2794 17.842 20.5607 17.5607C20.842 17.2794 21 16.8978 21 16.5V1.5C21 1.10218 20.842 0.720644 20.5607 0.43934C20.2794 0.158035 19.8978 0 19.5 0ZM16.5 11.52V10.98C16.4584 10.6204 16.2787 10.2911 15.9988 10.0616C15.7189 9.83209 15.3607 9.72036 15 9.75H6C5.63925 9.72036 5.28111 9.83209 5.00122 10.0616C4.72132 10.2911 4.5416 10.6204 4.5 10.98V11.52C4.5416 11.8796 4.72132 12.2089 5.00122 12.4384C5.28111 12.6679 5.63925 12.7796 6 12.75H15C15.3607 12.7796 15.7189 12.6679 15.9988 12.4384C16.2787 12.2089 16.4584 11.8796 16.5 11.52ZM15 6.645V6.105C15.0122 5.79315 14.901 5.48905 14.6903 5.25876C14.4797 5.02846 14.1867 4.89056 13.875 4.875H7.125C6.81329 4.89056 6.52031 5.02846 6.30968 5.25876C6.09904 5.48905 5.98776 5.79315 6 6.105V6.645C5.98776 6.95685 6.09904 7.26095 6.30968 7.49124C6.52031 7.72154 6.81329 7.85944 7.125 7.875H13.875C14.1867 7.85944 14.4797 7.72154 14.6903 7.49124C14.901 7.26095 15.0122 6.95685 15 6.645Z" fill="black"/>
</svg>
