<svg width="21" height="18" viewBox="0 0 21 18" fill="none" xmlns="http://www.w3.org/2000/svg">
<path d="M15.3 9.8449H10.605C10.3768 9.81656 10.1669 9.70765 10.0148 9.53858C9.86274 9.3695 9.77882 9.15189 9.77882 8.92653C9.77882 8.70117 9.86274 8.48356 10.0148 8.31449C10.1669 8.14541 10.3768 8.0365 10.605 8.00816H15.3C15.5282 8.0365 15.7381 8.14541 15.8902 8.31449C16.0423 8.48356 16.1262 8.70117 16.1262 8.92653C16.1262 9.15189 16.0423 9.3695 15.8902 9.53858C15.7381 9.70765 15.5282 9.81656 15.3 9.8449ZM16.23 12.7837C16.23 12.5407 16.1325 12.3074 15.9585 12.1342C15.7845 11.961 15.548 11.8618 15.3 11.858H5.535C5.30678 11.8863 5.09694 11.9952 4.94484 12.1643C4.79274 12.3334 4.70882 12.551 4.70882 12.7763C4.70882 13.0017 4.79274 13.2193 4.94484 13.3884C5.09694 13.5574 5.30678 13.6664 5.535 13.6947H15.3C15.5467 13.6947 15.7832 13.5987 15.9576 13.4279C16.132 13.257 16.23 13.0253 16.23 12.7837ZM21 4.77551V16.5306C21 16.9203 20.842 17.2941 20.5607 17.5696C20.2794 17.8452 19.8978 18 19.5 18H1.5C1.10218 18 0.720644 17.8452 0.43934 17.5696C0.158035 17.2941 0 16.9203 0 16.5306V4.77551C0 4.3858 0.158035 4.01206 0.43934 3.7365C0.720644 3.46093 1.10218 3.30612 1.5 3.30612H3.435V1.10204C3.435 0.809761 3.55353 0.529453 3.7645 0.32278C3.97548 0.116107 4.26163 0 4.56 0C4.85837 0 5.14452 0.116107 5.3555 0.32278C5.56647 0.529453 5.685 0.809761 5.685 1.10204V3.30612H15.435V1.10204C15.435 0.809761 15.5535 0.529453 15.7645 0.32278C15.9755 0.116107 16.2616 0 16.56 0C16.8584 0 17.1445 0.116107 17.3555 0.32278C17.5665 0.529453 17.685 0.809761 17.685 1.10204V3.30612H19.5C19.8978 3.30612 20.2794 3.46093 20.5607 3.7365C20.842 4.01206 21 4.3858 21 4.77551ZM18.75 5.5102H2.25V15.7959H18.75V5.5102Z" fill="black"/>
</svg>
