<svg width="18" height="21" viewBox="0 0 18 21" fill="none" xmlns="http://www.w3.org/2000/svg">
<path d="M9.00001 10.4997C7.95919 10.5116 6.93832 10.2138 6.0671 9.64419C5.19589 9.07459 4.51365 8.25887 4.10708 7.30067C3.7005 6.34247 3.58793 5.28503 3.78368 4.26271C3.97943 3.24039 4.47465 2.29933 5.20643 1.55909C5.93821 0.818848 6.87351 0.312842 7.89352 0.105359C8.91352 -0.102124 9.97218 -0.00171947 10.935 0.393816C11.8978 0.789352 12.7213 1.46217 13.3009 2.32678C13.8805 3.19139 14.1899 4.20877 14.19 5.24966C14.194 5.93516 14.0629 6.61473 13.8042 7.24956C13.5455 7.8844 13.1643 8.46206 12.6823 8.94957C12.2004 9.43708 11.6272 9.82489 10.9953 10.0909C10.3635 10.3568 9.68551 10.4957 9.00001 10.4997ZM9.00001 2.27966C8.40667 2.27966 7.82665 2.45561 7.3333 2.78525C6.83995 3.11489 6.45544 3.58343 6.22837 4.13161C6.00131 4.67979 5.9419 5.28299 6.05766 5.86493C6.17341 6.44687 6.45913 6.98142 6.87869 7.40098C7.29825 7.82054 7.8328 8.10626 8.41474 8.22202C8.99668 8.33777 9.59988 8.27836 10.1481 8.0513C10.6962 7.82424 11.1648 7.43972 11.4944 6.94637C11.8241 6.45302 12 5.873 12 5.27966C12 4.48401 11.6839 3.72095 11.1213 3.15834C10.5587 2.59573 9.79566 2.27966 9.00001 2.27966ZM12.375 20.9997H5.62501C4.09959 20.9041 2.66812 20.2301 1.62278 19.115C0.577433 18 -0.00297644 16.5281 1.14791e-05 14.9997C0.00394913 14.3047 0.281775 13.6393 0.773207 13.1479C1.26464 12.6564 1.93003 12.3786 2.62501 12.3747H15.375C16.07 12.3786 16.7354 12.6564 17.2268 13.1479C17.7182 13.6393 17.9961 14.3047 18 14.9997C18.003 16.5281 17.4226 18 16.3772 19.115C15.3319 20.2301 13.9004 20.9041 12.375 20.9997ZM2.62501 14.6247C2.52556 14.6247 2.43017 14.6642 2.35985 14.7345C2.28952 14.8048 2.25001 14.9002 2.25001 14.9997C2.23845 15.9345 2.57928 16.8393 3.20467 17.5342C3.83007 18.2291 4.69417 18.663 5.62501 18.7497H12.375C13.3059 18.663 14.17 18.2291 14.7953 17.5342C15.4207 16.8393 15.7616 15.9345 15.75 14.9997C15.75 14.9002 15.7105 14.8048 15.6402 14.7345C15.5699 14.6642 15.4745 14.6247 15.375 14.6247H2.62501Z" fill="#121212"/>
</svg>
